<svg xmlns="http://www.w3.org/2000/svg" xlink="http://www.w3.org/1999/xlink" width="0" height="0" style="display:none;"><symbol viewBox="0 0 24 24" id="search-2-line"><path fill="none" d="M0 0h24v24H0z"/><path d="M11 2c4.968 0 9 4.032 9 9s-4.032 9-9 9-9-4.032-9-9 4.032-9 9-9zm0 16c3.867 0 7-3.133 7-7 0-3.868-3.133-7-7-7-3.868 0-7 3.132-7 7 0 3.867 3.132 7 7 7zm8.485.071l2.829 2.828-1.415 1.415-2.828-2.829 1.414-1.414z"/></symbol><symbol viewBox="0 0 24 24" id="eye-fill"><path fill="none" d="M0 0h24v24H0z"/><path d="M1.181 12C2.121 6.88 6.608 3 12 3c5.392 0 9.878 3.88 10.819 9-.94 5.12-5.427 9-10.819 9-5.392 0-9.878-3.88-10.819-9zM12 17a5 5 0 1 0 0-10 5 5 0 0 0 0 10zm0-2a3 3 0 1 1 0-6 3 3 0 0 1 0 6z"/></symbol><symbol viewBox="0 0 24 24" id="group-fill"><path fill="none" d="M0 0h24v24H0z"/><path d="M2 22a8 8 0 1 1 16 0H2zm8-9c-3.315 0-6-2.685-6-6s2.685-6 6-6 6 2.685 6 6-2.685 6-6 6zm7.363 2.233A7.505 7.505 0 0 1 22.983 22H20c0-2.61-1-4.986-2.637-6.767zm-2.023-2.276A7.98 7.98 0 0 0 18 7a7.964 7.964 0 0 0-1.015-3.903A5 5 0 0 1 21 8a4.999 4.999 0 0 1-5.66 4.957z"/></symbol><symbol viewBox="0 0 24 24" id="arrow-up-s-line"><path fill="none" d="M0 0h24v24H0z"/><path d="M12 10.828l-4.95 4.95-1.414-1.414L12 8l6.364 6.364-1.414 1.414z"/></symbol><symbol viewBox="0 0 24 24" id="arrow-down-s-line"><path fill="none" d="M0 0h24v24H0z"/><path d="M12 13.172l4.95-4.95 1.414 1.414L12 16 5.636 9.636 7.05 8.222z"/></symbol><symbol viewBox="0 0 24 24" id="arrow-left-s-line"><path fill="none" d="M0 0h24v24H0z"/><path d="M10.828 12l4.95 4.95-1.414 1.414L8 12l6.364-6.364 1.414 1.414z"/></symbol><symbol viewBox="0 0 24 24" id="arrow-right-s-line"><path fill="none" d="M0 0h24v24H0z"/><path d="M13.172 12l-4.95-4.95 1.414-1.414L16 12l-6.364 6.364-1.414-1.414z"/></symbol><symbol viewBox="0 0 24 24" id="pushpin-fill"><path fill="none" d="M0 0h24v24H0z"/><path d="M22.314 10.172l-1.415 1.414-.707-.707-4.242 4.242-.707 3.536-1.415 1.414-4.242-4.243-4.95 4.95-1.414-1.414 4.95-4.95-4.243-4.242 1.414-1.415L8.88 8.05l4.242-4.242-.707-.707 1.414-1.415z"/></symbol><symbol viewBox="0 0 24 24" id="mail-fill"><path fill="none" d="M0 0h24v24H0z"/><path d="M3 3h18a1 1 0 0 1 1 1v16a1 1 0 0 1-1 1H3a1 1 0 0 1-1-1V4a1 1 0 0 1 1-1zm9.06 8.683L5.648 6.238 4.353 7.762l7.72 6.555 7.581-6.56-1.308-1.513-6.285 5.439z"/></symbol><symbol viewBox="0 0 24 24" id="behance-fill"><path fill="none" d="M0 0h24v24H0z"/><path d="M7.443 5.35c.639 0 1.23.05 1.77.198a3.83 3.83 0 0 1 1.377.544c.394.247.689.594.885 1.039.197.445.295.99.295 1.583 0 .693-.147 1.286-.491 1.731-.295.446-.787.841-1.377 1.138.836.248 1.475.693 1.868 1.286.394.594.64 1.336.64 2.177 0 .693-.148 1.286-.394 1.781-.246.495-.639.94-1.082 1.237a5.078 5.078 0 0 1-1.573.692c-.59.149-1.18.248-1.77.248H1V5.35h6.443zm-.394 5.54c.541 0 .984-.148 1.328-.395.344-.247.492-.693.492-1.237 0-.297-.05-.594-.148-.791-.098-.198-.246-.347-.442-.495-.197-.099-.394-.198-.64-.247-.246-.05-.491-.05-.787-.05H4v3.216h3.05zm.148 5.838c.295 0 .59-.05.836-.099a1.72 1.72 0 0 0 .688-.297 1.76 1.76 0 0 0 .492-.544c.098-.247.197-.544.197-.89 0-.693-.197-1.188-.59-1.534-.394-.297-.935-.445-1.574-.445H4v3.81h3.197zm9.492-.05c.393.396.983.594 1.77.594.541 0 1.033-.148 1.426-.395.394-.297.64-.594.738-.891h2.41c-.394 1.187-.984 2.028-1.77 2.572-.788.495-1.722.792-2.853.792a5.753 5.753 0 0 1-2.115-.396 3.93 3.93 0 0 1-1.574-1.088 3.93 3.93 0 0 1-.983-1.633c-.246-.643-.345-1.335-.345-2.127 0-.742.099-1.434.345-2.078a5.34 5.34 0 0 1 1.032-1.682c.443-.445.984-.84 1.574-1.088a5.49 5.49 0 0 1 2.066-.396c.836 0 1.574.149 2.213.495.64.346 1.131.742 1.525 1.336a6.01 6.01 0 0 1 .885 1.88c.098.692.147 1.385.098 2.176H16c0 .792.295 1.534.689 1.93zm3.098-5.194c-.344-.346-.885-.544-1.525-.544-.442 0-.787.099-1.082.247-.295.149-.491.347-.688.545a1.322 1.322 0 0 0-.344.692c-.05.248-.099.445-.099.643h4.426c-.098-.742-.344-1.236-.688-1.583zM15.459 6.29h5.508v1.336H15.46V6.29z"/></symbol><symbol viewBox="0 0 24 24" id="google-fill"><path fill="none" d="M0 0h24v24H0z"/><path d="M3.064 7.51A9.996 9.996 0 0 1 12 2c2.695 0 4.959.99 6.69 2.605l-2.867 2.868C14.786 6.482 13.468 5.977 12 5.977c-2.605 0-4.81 1.76-5.595 4.123-.2.6-.314 1.24-.314 1.9 0 .66.114 1.3.314 1.9.786 2.364 2.99 4.123 5.595 4.123 1.345 0 2.49-.355 3.386-.955a4.6 4.6 0 0 0 1.996-3.018H12v-3.868h9.418c.118.654.182 1.336.182 2.045 0 3.046-1.09 5.61-2.982 7.35C16.964 21.105 14.7 22 12 22A9.996 9.996 0 0 1 2 12c0-1.614.386-3.14 1.064-4.49z"/></symbol><symbol viewBox="0 0 24 24" id="douban-fill"><path fill="none" d="M0 0h24v24H0z"/><path d="M16.314 19.138h4.065a.62.62 0 0 1 .621.62v.621a.62.62 0 0 1-.62.621H3.62a.62.62 0 0 1-.62-.62v-.621a.62.62 0 0 1 .62-.621h3.754l-.96-3.104h2.19a.62.62 0 0 1 .59.425l.892 2.679H13.6l1.225-4.035H5.172a.62.62 0 0 1-.62-.62V7.345a.62.62 0 0 1 .62-.62h13.656a.62.62 0 0 1 .62.62v7.138a.62.62 0 0 1-.62.62h-1.289l-1.225 4.035zM3.931 3h16.138a.62.62 0 0 1 .62.62v.621a.62.62 0 0 1-.62.621H3.931a.62.62 0 0 1-.62-.62V3.62A.62.62 0 0 1 3.93 3zM7.19 8.586a.155.155 0 0 0-.156.155v4.035c0 .086.07.155.156.155h9.62c.086 0 .156-.07.156-.155V8.74a.155.155 0 0 0-.156-.155H7.19z"/></symbol><symbol viewBox="0 0 24 24" id="medium-fill"><path fill="none" d="M0 0h24v24H0z"/><path d="M4 3h16a1 1 0 0 1 1 1v16a1 1 0 0 1-1 1H4a1 1 0 0 1-1-1V4a1 1 0 0 1 1-1zm13.3 12.94c-.1-.05-.15-.2-.15-.301V8.006c0-.1.05-.25.15-.351l.955-1.105V6.5H14.84l-2.56 6.478L9.366 6.5H5.852v.05l.903 1.256c.201.2.251.502.251.753v5.523c.05.302 0 .653-.15.954L5.5 16.894v.05h3.616v-.05L7.76 15.087c-.15-.302-.201-.603-.15-.954V9.11c.05.1.1.1.15.301l3.414 7.633h.05L14.54 8.76c-.05.3-.05.652-.05.904v5.925c0 .15-.05.25-.15.351l-1.005.954v.05h4.921v-.05l-.954-.954z"/></symbol><symbol viewBox="0 0 24 24" id="slack-fill"><path fill="none" d="M0 0h24v24H0z"/><path d="M6.527 14.514A1.973 1.973 0 0 1 4.56 16.48a1.973 1.973 0 0 1-1.967-1.967c0-1.083.884-1.968 1.967-1.968h1.968v1.968zm.992 0c0-1.083.884-1.968 1.967-1.968 1.083 0 1.968.885 1.968 1.968v4.927a1.973 1.973 0 0 1-1.968 1.967 1.973 1.973 0 0 1-1.967-1.967v-4.927zm1.967-7.987A1.973 1.973 0 0 1 7.52 4.56c0-1.083.884-1.967 1.967-1.967 1.083 0 1.968.884 1.968 1.967v1.968H9.486zm0 .992c1.083 0 1.968.884 1.968 1.967a1.973 1.973 0 0 1-1.968 1.968H4.56a1.973 1.973 0 0 1-1.967-1.968c0-1.083.884-1.967 1.967-1.967h4.927zm7.987 1.967c0-1.083.885-1.967 1.968-1.967s1.967.884 1.967 1.967a1.973 1.973 0 0 1-1.967 1.968h-1.968V9.486zm-.992 0a1.973 1.973 0 0 1-1.967 1.968 1.973 1.973 0 0 1-1.968-1.968V4.56c0-1.083.885-1.967 1.968-1.967s1.967.884 1.967 1.967v4.927zm-1.967 7.987c1.083 0 1.967.885 1.967 1.968a1.973 1.973 0 0 1-1.967 1.967 1.973 1.973 0 0 1-1.968-1.967v-1.968h1.968zm0-.992a1.973 1.973 0 0 1-1.968-1.967c0-1.083.885-1.968 1.968-1.968h4.927c1.083 0 1.967.885 1.967 1.968a1.973 1.973 0 0 1-1.967 1.967h-4.927z"/></symbol><symbol viewBox="0 0 24 24" id="alipay-fill"><path fill="none" d="M0 0h24v24H0z"/><path d="M21.422 15.358c-3.83-1.153-6.055-1.84-6.678-2.062a12.41 12.41 0 0 0 1.32-3.32H12.8V8.872h4v-.68h-4V6.344h-1.536c-.28 0-.312.248-.312.248v1.592H7.2v.68h3.752v1.104H7.88v.616h6.224a10.972 10.972 0 0 1-.888 2.176c-1.408-.464-2.192-.784-3.912-.944-3.256-.312-4.008 1.48-4.128 2.576C5 16.064 6.48 17.424 8.688 17.424s3.68-1.024 5.08-2.72c1.167.558 3.338 1.525 6.514 2.902A9.99 9.99 0 0 1 12 22C6.477 22 2 17.523 2 12S6.477 2 12 2s10 4.477 10 10a9.983 9.983 0 0 1-.578 3.358zm-12.99 1.01c-2.336 0-2.704-1.48-2.584-2.096.12-.616.8-1.416 2.104-1.416 1.496 0 2.832.384 4.44 1.16-1.136 1.48-2.52 2.352-3.96 2.352z"/></symbol><symbol viewBox="0 0 24 24" id="zhihu-line"><path fill="none" d="M0 0h24v24H0z"/><path d="M12.344 17.963l-1.688 1.074-2.131-3.35c-.44 1.402-1.172 2.665-2.139 3.825-.402.483-.82.918-1.301 1.375-.155.147-.775.717-.878.82l-1.414-1.414c.139-.139.787-.735.915-.856.43-.408.795-.79 1.142-1.206 1.266-1.518 2.03-3.21 2.137-5.231H3v-2h4V7h-.868c-.689 1.266-1.558 2.222-2.618 2.857L2.486 8.143c1.395-.838 2.425-2.604 3.038-5.36l1.952.434c-.14.633-.303 1.227-.489 1.783H11.5v2H9v4h2.5v2H9.185l3.159 4.963zm3.838-.07L17.298 17H19V7h-4v10h.736l.446.893zM13 5h8v14h-3l-2.5 2-1-2H13V5z"/></symbol><symbol viewBox="0 0 24 24" id="linkedin-fill"><path fill="none" d="M0 0h24v24H0z"/><path d="M6.94 5a2 2 0 1 1-4-.002 2 2 0 0 1 4 .002zM7 8.48H3V21h4V8.48zm6.32 0H9.34V21h3.94v-6.57c0-3.66 4.77-4 4.77 0V21H22v-7.93c0-6.17-7.06-5.94-8.72-2.91l.04-1.68z"/></symbol><symbol viewBox="0 0 24 24" id="facebook-fill"><path fill="none" d="M0 0h24v24H0z"/><path d="M14 13.5h2.5l1-4H14v-2c0-1.03 0-2 2-2h1.5V2.14c-.326-.043-1.557-.14-2.857-.14C11.928 2 10 3.657 10 6.7v2.8H7v4h3V22h4v-8.5z"/></symbol><symbol viewBox="0 0 24 24" id="instagram-fill"><path fill="none" d="M0 0h24v24H0z"/><path d="M12 2c2.717 0 3.056.01 4.122.06 1.065.05 1.79.217 2.428.465.66.254 1.216.598 1.772 1.153a4.908 4.908 0 0 1 1.153 1.772c.247.637.415 1.363.465 2.428.047 1.066.06 1.405.06 4.122 0 2.717-.01 3.056-.06 4.122-.05 1.065-.218 1.79-.465 2.428a4.883 4.883 0 0 1-1.153 1.772 4.915 4.915 0 0 1-1.772 1.153c-.637.247-1.363.415-2.428.465-1.066.047-1.405.06-4.122.06-2.717 0-3.056-.01-4.122-.06-1.065-.05-1.79-.218-2.428-.465a4.89 4.89 0 0 1-1.772-1.153 4.904 4.904 0 0 1-1.153-1.772c-.248-.637-.415-1.363-.465-2.428C2.013 15.056 2 14.717 2 12c0-2.717.01-3.056.06-4.122.05-1.066.217-1.79.465-2.428a4.88 4.88 0 0 1 1.153-1.772A4.897 4.897 0 0 1 5.45 2.525c.638-.248 1.362-.415 2.428-.465C8.944 2.013 9.283 2 12 2zm0 5a5 5 0 1 0 0 10 5 5 0 0 0 0-10zm6.5-.25a1.25 1.25 0 0 0-2.5 0 1.25 1.25 0 0 0 2.5 0zM12 9a3 3 0 1 1 0 6 3 3 0 0 1 0-6z"/></symbol><symbol viewBox="0 0 24 24" id="twitter-fill"><path fill="none" d="M0 0h24v24H0z"/><path d="M22.162 5.656a8.384 8.384 0 0 1-2.402.658A4.196 4.196 0 0 0 21.6 4c-.82.488-1.719.83-2.656 1.015a4.182 4.182 0 0 0-7.126 3.814 11.874 11.874 0 0 1-8.62-4.37 4.168 4.168 0 0 0-.566 2.103c0 1.45.738 2.731 1.86 3.481a4.168 4.168 0 0 1-1.894-.523v.052a4.185 4.185 0 0 0 3.355 4.101 4.21 4.21 0 0 1-1.89.072A4.185 4.185 0 0 0 7.97 16.65a8.394 8.394 0 0 1-6.191 1.732 11.83 11.83 0 0 0 6.41 1.88c7.693 0 11.9-6.373 11.9-11.9 0-.18-.005-.362-.013-.54a8.496 8.496 0 0 0 2.087-2.165z"/></symbol><symbol viewBox="0 0 24 24" id="weibo-fill"><path fill="none" d="M0 0h24v24H0z"/><path d="M17.525 11.378c1.263.392 2.669 1.336 2.669 3.004 0 2.763-3.98 6.239-9.964 6.239-4.565 0-9.23-2.213-9.23-5.852 0-1.902 1.204-4.102 3.277-6.177 2.773-2.77 6.004-4.033 7.219-2.816.537.537.588 1.464.244 2.572-.178.557.525.25.525.25 2.24-.938 4.196-.994 4.909.027.38.543.343 1.306-.008 2.19-.163.407.048.471.36.563zm-7.282 7.939c3.641-.362 6.401-2.592 6.167-4.983-.237-2.391-3.382-4.038-7.023-3.677-3.64.36-6.403 2.59-6.167 4.98.237 2.394 3.382 4.039 7.023 3.68zM6.16 14.438c.754-1.527 2.712-2.39 4.446-1.94 1.793.463 2.707 2.154 1.976 3.8-.744 1.682-2.882 2.578-4.695 1.993-1.752-.566-2.493-2.294-1.727-3.853zm1.446 2.587c.568.257 1.325.013 1.676-.55.346-.568.163-1.217-.407-1.459-.563-.237-1.291.008-1.64.553-.354.547-.189 1.202.371 1.456zm2.206-1.808c.219.092.501-.012.628-.231.123-.22.044-.466-.178-.548-.216-.084-.486.018-.613.232-.123.214-.054.458.163.547zM19.873 9.5a.725.725 0 1 1-1.378-.451 1.38 1.38 0 0 0-.288-1.357 1.395 1.395 0 0 0-1.321-.425.723.723 0 1 1-.303-1.416 2.836 2.836 0 0 1 3.29 3.649zm-3.916-6.575A5.831 5.831 0 0 1 21.5 4.72a5.836 5.836 0 0 1 1.22 5.704.838.838 0 0 1-1.06.54.844.844 0 0 1-.542-1.062 4.143 4.143 0 0 0-4.807-5.327.845.845 0 0 1-.354-1.65z"/></symbol><symbol viewBox="0 0 24 24" id="github-fill"><path fill="none" d="M0 0h24v24H0z"/><path d="M12 2C6.475 2 2 6.475 2 12a9.994 9.994 0 0 0 6.838 9.488c.5.087.687-.213.687-.476 0-.237-.013-1.024-.013-1.862-2.512.463-3.162-.612-3.362-1.175-.113-.288-.6-1.175-1.025-1.413-.35-.187-.85-.65-.013-.662.788-.013 1.35.725 1.538 1.025.9 1.512 2.338 1.087 2.912.825.088-.65.35-1.087.638-1.337-2.225-.25-4.55-1.113-4.55-4.938 0-1.088.387-1.987 1.025-2.688-.1-.25-.45-1.275.1-2.65 0 0 .837-.262 2.75 1.026a9.28 9.28 0 0 1 2.5-.338c.85 0 1.7.112 2.5.337 1.912-1.3 2.75-1.024 2.75-1.024.55 1.375.2 2.4.1 2.65.637.7 1.025 1.587 1.025 2.687 0 3.838-2.337 4.688-4.562 4.938.362.312.675.912.675 1.85 0 1.337-.013 2.412-.013 2.75 0 .262.188.574.688.474A10.016 10.016 0 0 0 22 12c0-5.525-4.475-10-10-10z"/></symbol></svg>